<?xml version="1.0" encoding="UTF-8"?>
<svg width="167px" height="28px" viewBox="0 0 167 28" version="1.1" xmlns="http://www.w3.org/2000/svg" xmlns:xlink="http://www.w3.org/1999/xlink">
    <!-- Generator: Sketch 52.6 (67491) - http://www.bohemiancoding.com/sketch -->
    <title>Group 19</title>
    <desc>Created with Sketch.</desc>
    <defs>
        <polygon id="path-1" points="0.432604736 0.255208513 28.3014572 0.255208513 28.3014572 27.716747 0.432604736 27.716747"></polygon>
    </defs>
    <g id="Page-1" stroke="none" stroke-width="1" fill="none" fill-rule="evenodd">
        <g id="Group-19">
            <g id="Clipped">
                <mask id="mask-2" fill="white">
                    <use xlink:href="#path-1"></use>
                </mask>
                <g id="Path"></g>
                <path d="M5.99385209,22.7752402 L6.30976758,23.0837342 L6.34107468,23.114583 C7.32297341,24.1157854 7.31158907,25.7311701 6.30976758,26.7183495 C5.30794608,27.7083333 3.67144772,27.716747 2.65539599,26.7491984 L2.62124299,26.7183495 L2.30817413,26.4098556 L1.44865647,25.5600958 C0.435450638,24.5616991 0.435450638,22.9266829 1.44865647,21.9254804 C2.4618623,20.9242787 4.12397523,20.9242787 5.13718106,21.9254804 L5.99385209,22.7752402 Z" id="Path" fill="#FFFFFF" mask="url(#mask-2)"></path>
                <path d="M23.3891162,8.70793251 L23.6936474,8.4050479 L27.2597902,4.89102564 C28.2729967,3.89262821 28.2729967,2.257612 27.2597902,1.25360595 C26.2437384,0.255208513 24.5844721,0.255208513 23.5712656,1.25360595 L20.3580372,4.42548041 L20.0079694,4.77043251 L19.7005916,5.07051282 L17.8563293,6.88782051 C16.8459701,7.88902226 16.8459701,9.52403846 17.8563293,10.5252402 L19.7005916,12.3425479 L20.0307381,12.6650641 L23.5968809,16.1790864 C24.6100867,17.1774838 26.2665071,17.1774838 27.2854055,16.1790864 C28.2986113,15.1806889 28.2986113,13.5428684 27.2854055,12.544471 L23.7192627,9.02764441 L23.3891162,8.70793251 Z" id="Path" fill="#FFFFFF" mask="url(#mask-2)"></path>
                <path d="M1.59665282,1.27884615 L1.59665282,1.27604185 C2.60985865,0.27764441 4.26912568,0.27764441 5.28233151,1.27604185 L27.2341756,22.9238786 C28.253074,23.9222753 28.253074,25.5600958 27.2341756,26.5584939 C26.2209698,27.5596957 24.5645494,27.5596957 23.5484969,26.5584939 L1.59665282,4.91065723 C0.583446995,3.91225979 0.583446995,2.27724359 1.59665282,1.27884615 Z" id="Path" fill="#53B656" mask="url(#mask-2)"></path>
                <path d="M1.56249982,11.6414265 C2.57570565,10.643029 4.23497268,10.643029 5.25102441,11.6414265 L7.74988634,14.1065709 L13.1602914,19.4407051 L16.7264342,22.9547274 C17.7396401,23.9531248 17.7396401,25.5909453 16.7264342,26.5893428 C15.7075366,27.5905452 14.0511155,27.5905452 13.0379097,26.5893428 L9.47176685,23.0753205 L4.06420765,17.7411863 L1.56249982,15.2788462 C0.549293989,14.2776444 0.549293989,12.6398239 1.56249982,11.6414265 Z" id="Path" fill="#53B656" mask="url(#mask-2)"></path>
            </g>
            <path d="M54.29,13.19 C54.29,14.715341 53.9636699,16.0683274 53.311,17.249 C52.6583301,18.4296726 51.7196728,19.3499967 50.495,20.01 C49.2703272,20.6700033 47.8293416,21 46.172,21 L40.298,21 L40.298,5.446 L46.172,5.446 C47.8440084,5.446 49.2886606,5.76866344 50.506,6.414 C51.7233394,7.05933656 52.6583301,7.9686608 53.311,9.142 C53.9636699,10.3153392 54.29,11.664659 54.29,13.19 Z M45.842,17.634 C47.308674,17.634 48.4489959,17.2453372 49.263,16.468 C50.0770041,15.6906628 50.484,14.598007 50.484,13.19 C50.484,11.781993 50.0770041,10.6893372 49.263,9.912 C48.4489959,9.13466278 47.308674,8.746 45.842,8.746 L44.06,8.746 L44.06,17.634 L45.842,17.634 Z M64.7859999,8.438 L64.7859999,11.694 L70.0439999,11.694 L70.0439999,14.532 L64.7859999,14.532 L64.7859999,17.986 L70.7039999,17.986 L70.7039999,21 L61.0239999,21 L61.0239999,5.446 L70.7039999,5.446 L70.7039999,8.438 L64.7859999,8.438 Z M80.3419998,5.446 L84.1479998,17.15 L87.9539998,5.446 L91.9799998,5.446 L86.5679998,21 L81.7059998,21 L76.3159998,5.446 L80.3419998,5.446 Z M112.024,13.19 C112.024,14.715341 111.69767,16.0683274 111.045,17.249 C110.39233,18.4296726 109.453673,19.3499967 108.229,20.01 C107.004327,20.6700033 105.563341,21 103.906,21 L98.0319997,21 L98.0319997,5.446 L103.906,5.446 C105.578008,5.446 107.02266,5.76866344 108.24,6.414 C109.457339,7.05933656 110.39233,7.9686608 111.045,9.142 C111.69767,10.3153392 112.024,11.664659 112.024,13.19 Z M103.576,17.634 C105.042674,17.634 106.182996,17.2453372 106.997,16.468 C107.811004,15.6906628 108.218,14.598007 108.218,13.19 C108.218,11.781993 107.811004,10.6893372 106.997,9.912 C106.182996,9.13466278 105.042674,8.746 103.576,8.746 L101.794,8.746 L101.794,17.634 L103.576,17.634 Z M122.52,8.438 L122.52,11.694 L127.778,11.694 L127.778,14.532 L122.52,14.532 L122.52,17.986 L128.438,17.986 L128.438,21 L118.758,21 L118.758,5.446 L128.438,5.446 L128.438,8.438 L122.52,8.438 Z M146.348,16.622 C146.348,17.4433374 146.139002,18.1986632 145.721,18.888 C145.302997,19.5773368 144.687004,20.1273313 143.873,20.538 C143.058995,20.9486687 142.072672,21.154 140.914,21.154 C139.168657,21.154 137.731339,20.7286709 136.602,19.878 C135.472661,19.0273291 134.856667,17.839341 134.754,16.314 L138.758,16.314 C138.816666,16.9006696 139.025664,17.362665 139.385,17.7 C139.744335,18.037335 140.202663,18.206 140.76,18.206 C141.244002,18.206 141.625331,18.0740013 141.904,17.81 C142.182668,17.5459987 142.322,17.1940022 142.322,16.754 C142.322,16.357998 142.193667,16.0280013 141.937,15.764 C141.680332,15.4999987 141.361335,15.2836675 140.98,15.115 C140.598664,14.9463325 140.07067,14.7446678 139.396,14.51 C138.413328,14.172665 137.610336,13.8463349 136.987,13.531 C136.363663,13.2156651 135.828335,12.7463365 135.381,12.123 C134.933664,11.4996636 134.71,10.6893383 134.71,9.692 C134.71,8.76799538 134.944664,7.96867004 135.414,7.294 C135.883335,6.61932996 136.532329,6.10233513 137.361,5.743 C138.18967,5.38366487 139.139328,5.204 140.21,5.204 C141.940675,5.204 143.315661,5.61466256 144.335,6.436 C145.354338,7.25733744 145.929999,8.38665948 146.062,9.824 L141.992,9.824 C141.918666,9.3106641 141.731668,8.90366817 141.431,8.603 C141.130331,8.30233183 140.723335,8.152 140.21,8.152 C139.769997,8.152 139.414334,8.26933216 139.143,8.504 C138.871665,8.73866784 138.736,9.08333106 138.736,9.538 C138.736,9.9046685 138.856998,10.2163321 139.099,10.473 C139.341001,10.729668 139.645331,10.9386659 140.012,11.1 C140.378668,11.2613341 140.906663,11.4666654 141.596,11.716 C142.593338,12.053335 143.40733,12.3869984 144.038,12.717 C144.668669,13.0470017 145.211331,13.5273302 145.666,14.158 C146.120668,14.7886698 146.348,15.6099949 146.348,16.622 Z M160.363999,13.058 L166.633999,21 L162.079999,21 L156.799999,14.026 L156.799999,21 L153.037999,21 L153.037999,5.446 L156.799999,5.446 L156.799999,12.288 L162.123999,5.446 L166.633999,5.446 L160.363999,13.058 Z" id="DEVDESK" fill="#FFFFFF"></path>
        </g>
    </g>
</svg>