<?xml version="1.0" encoding="UTF-8"?>
<svg width="999px" height="337px" viewBox="0 0 999 337" version="1.1" xmlns="http://www.w3.org/2000/svg" xmlns:xlink="http://www.w3.org/1999/xlink">
    <!-- Generator: Sketch 52.6 (67491) - http://www.bohemiancoding.com/sketch -->
    <title>Path</title>
    <desc>Created with Sketch.</desc>
    <g id="Page-1" stroke="none" stroke-width="1" fill="none" fill-rule="evenodd">
        <g id="pattern-clound" fill="#FFFFFF">
            <path d="M896.619646,0.436664642 C843.783225,0.436664642 800.306615,40.4911531 794.853052,91.898921 C784.477521,84.2810219 771.676603,79.7767315 757.817247,79.7767315 C731.911642,79.7767315 709.679716,95.4966586 700.13005,117.918439 C681.467383,92.8956561 651.650783,76.6963475 618.046591,76.6963475 C576.292906,76.6963475 540.381987,101.709637 524.467459,137.573094 C514.818119,133.087789 504.067626,130.581713 492.728584,130.581713 C475.708156,130.581713 460.002468,136.220383 447.38191,145.736824 C425.382557,107.571385 384.179451,81.884113 336.972205,81.884113 C266.631227,81.884113 209.60852,138.930552 209.60852,209.295261 C209.60852,212.418362 209.72718,215.508239 209.950258,218.574385 C201.558702,214.373861 192.099217,211.995937 182.079662,211.995937 C149.989558,211.995937 123.571348,236.259303 120.134987,267.4476 C108.454207,260.736255 94.9081106,256.9012 80.4696987,256.9012 C36.4045419,256.896453 0.688221142,292.631759 0.688221142,336.706409 L998.965295,336.706409 L998.965295,102.815538 C998.965295,46.2722126 953.143985,0.436664642 896.619646,0.436664642 Z" id="Path"></path>
        </g>
    </g>
</svg>