<?xml version="1.0" encoding="UTF-8"?>
<svg width="698px" height="722px" viewBox="0 0 698 722" version="1.1" xmlns="http://www.w3.org/2000/svg" xmlns:xlink="http://www.w3.org/1999/xlink">
    <!-- Generator: Sketch 52.6 (67491) - http://www.bohemiancoding.com/sketch -->
    <title>pattern-shape</title>
    <desc>Created with Sketch.</desc>
    <g id="Page-1" stroke="none" stroke-width="1" fill="none" fill-rule="evenodd">
        <g id="pattern-shape" fill="#FFFFFF">
            <path d="M649.135653,151.025795 C606.060433,95.0897085 542.635637,63.9440949 476.699772,59.8483558 C456.15219,58.5611231 436.70264,50.7657187 420.520181,38.1184365 C356.348366,-11.8855781 263.195729,-13.8029255 194.703791,38.9555892 C160.889835,64.8892647 136.985158,101.52587 126.958873,142.90633 C121.351714,166.220535 107.437322,186.82525 88.2757798,201.479892 L87.9247693,201.749942 C-12.0410605,278.857844 -29.3665502,424.198052 49.3586784,526.438486 C94.0449425,584.46295 160.04381,616.067649 227.068707,618.552094 C259.820635,619.659295 290.052489,636.258288 308.494012,663.389181 C309.853049,665.450552 311.347093,667.520924 312.904136,669.546291 C368.318704,741.523269 493.287242,738.14766 592.056037,662.074943 C676.595431,596.957202 714.468503,499.676661 688.916779,427.807702 C681.608572,407.211989 681.275563,384.69893 687.665743,363.554116 C708.870343,292.675336 697.251014,213.515064 649.135653,151.025795 Z" id="Path"></path>
        </g>
    </g>
</svg>