<?xml version="1.0" encoding="UTF-8"?>
<svg width="12px" height="16px" viewBox="0 0 12 16" version="1.1" xmlns="http://www.w3.org/2000/svg" xmlns:xlink="http://www.w3.org/1999/xlink">
    <g id="Page-1" stroke="none" stroke-width="1" fill="none" fill-rule="evenodd">
        <g id="article-icon-alt" fill="#FFFFFF" fill-rule="nonzero">
            <path d="M3.5,7 C3.22385763,7 3,7.22385763 3,7.5 C3,7.77614237 3.22385763,8 3.5,8 L8.5,8 C8.77614237,8 9,7.77614237 9,7.5 C9,7.22385763 8.77614237,7 8.5,7 L3.5,7 Z M3,9.5 C3,9.22385763 3.22385763,9 3.5,9 L8.5,9 C8.77614237,9 9,9.22385763 9,9.5 C9,9.77614237 8.77614237,10 8.5,10 L3.5,10 C3.22385763,10 3,9.77614237 3,9.5 Z M3,11.5 C3,11.2238576 3.22385763,11 3.5,11 L5.5,11 C5.77614237,11 6,11.2238576 6,11.5 C6,11.7761424 5.77614237,12 5.5,12 L3.5,12 C3.22385763,12 3,11.7761424 3,11.5 Z" id="Shape"></path>
            <path d="M7.5,0 L2,0 C0.8954305,-6.76353751e-17 0,0.8954305 0,2 L0,14 C0,15.1045695 0.8954305,16 2,16 L10,16 C11.1045695,16 12,15.1045695 12,14 L12,4.5 L7.5,0 Z M7.5,1 L7.5,3 C7.5,3.82842712 8.17157288,4.5 9,4.5 L11,4.5 L11,14 C11,14.5522847 10.5522847,15 10,15 L2,15 C1.44771525,15 1,14.5522847 1,14 L1,2 C1,1.44771525 1.44771525,1 2,1 L7.5,1 Z" id="Shape"></path>
        </g>
    </g>
</svg>