<svg xmlns="http://www.w3.org/2000/svg" fill="none" viewBox="0 0 14 14" id="Code-Monitor-1--Streamline-Core.svg" height="14" width="14"><desc>Code Monitor 1 Streamline Icon: https://streamlinehq.com</desc><g id="code-monitor-1--code-tags-angle-bracket-monitor"><path id="Vector" fill="#ffffff" d="M5.04 12.635L6.02 10.185H7.98L8.96 12.635H5.04Z" stroke-width="1"></path><path id="Vector_2" fill="#5236cb21" d="M12.88 1.365H1.12C0.8494 1.365 0.63 1.5844 0.63 1.855V9.695C0.63 9.9656 0.8494 10.185 1.12 10.185H12.88C13.1506 10.185 13.37 9.9656 13.37 9.695V1.855C13.37 1.5844 13.1506 1.365 12.88 1.365Z" stroke-width="1"></path><path id="Vector_3" stroke="#5236cb" stroke-linecap="round" stroke-linejoin="round" d="M12.88 1.365H1.12C0.8494 1.365 0.63 1.5844 0.63 1.855V9.695C0.63 9.9656 0.8494 10.185 1.12 10.185H12.88C13.1506 10.185 13.37 9.9656 13.37 9.695V1.855C13.37 1.5844 13.1506 1.365 12.88 1.365Z" stroke-width="1"></path><path id="Vector_4" stroke="#5236cb" stroke-linecap="round" stroke-linejoin="round" d="M6.02 10.185L5.04 12.635" stroke-width="1"></path><path id="Vector_5" stroke="#5236cb" stroke-linecap="round" stroke-linejoin="round" d="M7.98 10.185L8.96 12.635" stroke-width="1"></path><path id="Vector_6" stroke="#5236cb" stroke-linecap="round" stroke-linejoin="round" d="M4.06 12.635H9.94" stroke-width="1"></path><path id="Vector_7" stroke="#5236cb" stroke-linecap="round" stroke-linejoin="round" d="M4.55 4.55L2.835 6.02L4.305 7.245" stroke-width="1"></path><path id="Vector_8" stroke="#5236cb" stroke-linecap="round" stroke-linejoin="round" d="M9.695 4.795L11.165 6.02L9.45 7.49" stroke-width="1"></path><path id="Vector_9" stroke="#5236cb" stroke-linecap="round" stroke-linejoin="round" d="M6.265 7.98L7.735 3.57" stroke-width="1"></path></g></svg>