<svg xmlns="http://www.w3.org/2000/svg" fill="none" viewBox="0 0 14 14" id="Code-Monitor-2--Streamline-Core.svg" height="14" width="14"><desc>Code Monitor 2 Streamline Icon: https://streamlinehq.com</desc><g id="code-monitor-2--code-tags-angle-image-ui-ux-design"><path id="Vector" fill="#5236cb21" d="M5.04 12.635L6.02 10.185H7.98L8.96 12.635H5.04Z" stroke-width="1"></path><path id="Subtract" fill="#ffffff" fill-rule="evenodd" d="M1.12 1.365H7.49V6.265L8.6758 5.285C9.0273 4.9942 9.4691 4.8351 9.9253 4.8351C10.3815 4.8351 10.8234 4.9942 11.1748 5.285L13.37 7.245V9.695C13.37 9.9656 13.1506 10.185 12.88 10.185H1.12C0.8494 10.185 0.63 9.9656 0.63 9.695V1.855C0.63 1.5844 0.8494 1.365 1.12 1.365Z" clip-rule="evenodd" stroke-width="1"></path><path id="Vector_2" fill="#5236cb21" d="M13.37 1.855C13.37 1.5844 13.1506 1.365 12.88 1.365H7.49V6.265L8.6758 5.285C9.0273 4.9942 9.4691 4.8351 9.9253 4.8351C10.3815 4.8351 10.8234 4.9942 11.1748 5.285L13.37 7.245V1.855Z" stroke-width="1"></path><path id="Vector_3" stroke="#5236cb" stroke-linecap="round" stroke-linejoin="round" d="M6.02 10.185L5.04 12.635" stroke-width="1"></path><path id="Vector_4" stroke="#5236cb" stroke-linecap="round" stroke-linejoin="round" d="M7.98 10.185L8.96 12.635" stroke-width="1"></path><path id="Vector_5" stroke="#5236cb" stroke-linecap="round" stroke-linejoin="round" d="M4.06 12.635H9.94" stroke-width="1"></path><path id="Vector_6" stroke="#5236cb" stroke-linecap="round" stroke-linejoin="round" d="M3.08 4.305H5.04" stroke-width="1"></path><path id="Vector_7" stroke="#5236cb" stroke-linecap="round" stroke-linejoin="round" d="M3.08 7.245H4.06" stroke-width="1"></path><path id="Vector_8" stroke="#5236cb" stroke-linecap="round" stroke-linejoin="round" d="M12.88 1.365H1.12C0.8494 1.365 0.63 1.5844 0.63 1.855V9.695C0.63 9.9656 0.8494 10.185 1.12 10.185H12.88C13.1506 10.185 13.37 9.9656 13.37 9.695V1.855C13.37 1.5844 13.1506 1.365 12.88 1.365Z" stroke-width="1"></path><path id="Vector_9" stroke="#5236cb" stroke-linecap="round" stroke-linejoin="round" d="M7.49 1.365V10.185" stroke-width="1"></path><path id="Vector_10" stroke="#5236cb" stroke-linecap="round" stroke-linejoin="round" d="M7.49 6.265L8.6758 5.285C9.0273 4.9942 9.4691 4.8351 9.9253 4.8351C10.3815 4.8351 10.8234 4.9942 11.1748 5.285L13.37 7.245" stroke-width="1"></path></g></svg>