<svg xmlns="http://www.w3.org/2000/svg" fill="none" viewBox="-1 -1 28 28" id="Office-Worker--Streamline-Core.svg" height="28" width="28"><desc>Office Worker Streamline Icon: https://streamlinehq.com</desc><g id="office-worker--office-worker-human-resources"><path id="Vector" fill="#ffffff" d="M13.547857142857143 18.51571428571429c0 -0.9044285714285715 0.7335714285714287 -1.6380000000000001 1.6380000000000001 -1.6380000000000001h8.193714285714286c0.9044285714285715 0 1.6380000000000001 0.7335714285714287 1.6380000000000001 1.639857142857143v4.915857142857143a1.6380000000000001 1.6380000000000001 0 0 1 -1.6380000000000001 1.6380000000000001H15.185857142857143a1.6380000000000001 1.6380000000000001 0 0 1 -1.6380000000000001 -1.6380000000000001V18.51571428571429Z" stroke-width="2"></path><path id="Vector_2" fill="#455b7733" d="M2.886 10.260714285714286A6.5 6.5 0 0 1 13.984285714285715 14.857142857142858v2.7857142857142856H10.830857142857143l-0.9285714285714286 7.428571428571429H5.0644285714285715l-0.9285714285714286 -7.428571428571429H0.9824285714285715V14.857142857142858a6.5 6.5 0 0 1 1.9035714285714285 -4.5964285714285715Z" stroke-width="2"></path><path id="Vector_3" fill="#455b7733" d="M7.484285714285715 8.357142857142858a3.7142857142857144 3.7142857142857144 0 1 0 0 -7.428571428571429 3.7142857142857144 3.7142857142857144 0 0 0 0 7.428571428571429Z" stroke-width="2"></path><path id="Vector_4" stroke="#455b77" stroke-linecap="round" stroke-linejoin="round" d="M7.484285714285715 8.357142857142858a3.7142857142857144 3.7142857142857144 0 1 0 0 -7.428571428571429 3.7142857142857144 3.7142857142857144 0 0 0 0 7.428571428571429Z" stroke-width="2"></path><path id="Vector_5" stroke="#455b77" stroke-linecap="round" stroke-linejoin="round" d="M10.615428571428572 19.544571428571427 9.92457142857143 25.071428571428573H5.0644285714285715l-0.9285714285714286 -7.428571428571429H0.9824285714285715V14.857142857142858a6.5 6.5 0 0 1 12.892285714285714 -1.1774285714285715" stroke-width="2"></path><path id="Vector_6" stroke="#455b77" stroke-linecap="round" stroke-linejoin="round" d="M13.547857142857143 18.51571428571429c0 -0.9044285714285715 0.7335714285714287 -1.6380000000000001 1.6380000000000001 -1.6380000000000001h8.193714285714286c0.9044285714285715 0 1.6380000000000001 0.7335714285714287 1.6380000000000001 1.639857142857143v4.915857142857143a1.6380000000000001 1.6380000000000001 0 0 1 -1.6380000000000001 1.6380000000000001H15.185857142857143a1.6380000000000001 1.6380000000000001 0 0 1 -1.6380000000000001 -1.6380000000000001V18.51571428571429Z" stroke-width="2"></path><path id="Vector_7" stroke="#455b77" stroke-linecap="round" stroke-linejoin="round" d="M17.04114285714286 16.877714285714283v-1.2071428571428573a1.8571428571428572 1.8571428571428572 0 0 1 1.8571428571428572 -1.8571428571428572h0.7651428571428571a1.8571428571428572 1.8571428571428572 0 0 1 1.8571428571428572 1.8571428571428572v1.2071428571428573" stroke-width="2"></path></g></svg>