<svg xmlns="http://www.w3.org/2000/svg" fill="none" viewBox="0 0 14 14" id="User-Multiple-Group--Streamline-Core.svg" height="14" width="14"><desc>User Multiple Group Streamline Icon: https://streamlinehq.com</desc><g id="user-multiple-group--close-geometric-human-multiple-person-up-user"><path id="Vector" fill="#5236cb21" d="M5.04 6.02C6.3931 6.02 7.49 4.9231 7.49 3.57S6.3931 1.12 5.04 1.12S2.59 2.2169 2.59 3.57S3.6869 6.02 5.04 6.02Z" stroke-width="1"></path><path id="Vector_2" fill="#5236cb21" d="M0.63 12.88H9.45V12.3487C9.4422 11.6017 9.2452 10.8689 8.8774 10.2187C8.5096 9.5686 7.983 9.0222 7.3469 8.6307C6.7107 8.2392 5.9856 8.0153 5.2395 7.98C5.1729 7.9769 5.1064 7.9752 5.04 7.9751C4.9736 7.9752 4.9071 7.9769 4.8406 7.98C4.0944 8.0153 3.3694 8.2392 2.7332 8.6307C2.097 9.0222 1.5704 9.5686 1.2026 10.2187C0.8348 10.8689 0.6378 11.6017 0.63 12.3487V12.88Z" stroke-width="1"></path><path id="Subtract" fill="#ffffff" fill-rule="evenodd" d="M7 5.0402C7.3077 4.6307 7.49 4.1217 7.49 3.57S7.3077 2.5093 7 2.0998C7.447 1.5048 8.1586 1.12 8.96 1.12C10.3131 1.12 11.41 2.2169 11.41 3.57S10.3131 6.02 8.96 6.02C8.1586 6.02 7.447 5.6352 7 5.0402ZM9.45 12.88H13.37V12.3487C13.3622 11.6017 13.1652 10.8689 12.7974 10.2187C12.4296 9.5686 11.903 9.0222 11.2668 8.6307C10.6306 8.2392 9.9056 8.0153 9.1595 7.98C9.0929 7.9769 9.0264 7.9752 8.96 7.9751C8.8936 7.9752 8.8271 7.9769 8.7606 7.98C8.1469 8.0091 7.5475 8.1657 7 8.4382C7.1182 8.497 7.2339 8.5612 7.3469 8.6307C7.9831 9.0222 8.5096 9.5686 8.8774 10.2187C9.2452 10.8689 9.4422 11.6017 9.45 12.3487V12.88Z" clip-rule="evenodd" stroke-width="1"></path><path id="Vector_3" stroke="#5236cb" stroke-linecap="round" stroke-linejoin="round" d="M5.04 6.02C6.3931 6.02 7.49 4.9231 7.49 3.57S6.3931 1.12 5.04 1.12S2.59 2.2169 2.59 3.57S3.6869 6.02 5.04 6.02Z" stroke-width="1"></path><path id="Vector_4" stroke="#5236cb" stroke-linecap="round" stroke-linejoin="round" d="M0.63 12.88H9.45V12.3487C9.4422 11.6017 9.2452 10.8689 8.8774 10.2187C8.5096 9.5686 7.983 9.0222 7.3469 8.6307C6.7107 8.2392 5.9856 8.0153 5.2395 7.98C5.1729 7.9769 5.1064 7.9752 5.04 7.9751C4.9736 7.9752 4.9071 7.9769 4.8406 7.98C4.0944 8.0153 3.3694 8.2392 2.7332 8.6307C2.097 9.0222 1.5704 9.5686 1.2026 10.2187C0.8348 10.8689 0.6378 11.6017 0.63 12.3487V12.88Z" stroke-width="1"></path><path id="Vector_5" stroke="#5236cb" stroke-linecap="round" stroke-linejoin="round" d="M8.96 6.02C10.3131 6.02 11.41 4.9231 11.41 3.57S10.3131 1.12 8.96 1.12" stroke-width="1"></path><path id="Vector_6" stroke="#5236cb" stroke-linecap="round" stroke-linejoin="round" d="M11.41 12.88H13.37V12.3487C13.3622 11.6018 13.1652 10.8689 12.7974 10.2187C12.4296 9.5686 11.903 9.0222 11.2668 8.6307C10.8556 8.3776 10.4072 8.1946 9.94 8.0873" stroke-width="1"></path></g></svg>